<svg width="32" height="30" xmlns="http://www.w3.org/2000/svg" class="icon">

 <g>
  <title>background</title>
  <rect height="32" width="34" y="-1" x="-1" fill="none" id="canvas_background"/>
 </g>
 <g>
  <title>Layer 1</title>
  <path d="m14.59241,13.470373c-1.531769,-0.40416 -2.798326,-0.708543 -3.92541,-1.062303l0,3.613866c0,0 1.931482,1.548063 5.508251,1.548063c3.320406,0 5.209749,-1.548063 5.209749,-1.548063l0,-3.871935c-1.461317,0.482025 -2.800097,1.004524 -3.793608,1.320594c-0.856562,0.348428 -2.05511,0.258362 -2.998982,-0.000222l0,0" id="svg_1"/>
  <path d="m25.111101,8.276611c-1.975704,-0.716692 -5.739798,-2.026732 -7.477798,-2.657612c-0.973583,-0.430369 -1.533779,-0.224533 -2.594973,0.153006c-1.79193,0.596905 -4.963969,1.690077 -7.008397,2.372997c-1.567322,0.517319 -1.474132,0.904088 -0.025183,1.513206c2.170915,0.913207 6.336382,2.318365 7.254935,2.622562c0.917988,0.304464 1.585239,0.306027 2.51112,-0.060814c0.926182,-0.367659 2.057878,-0.839718 6.233202,-2.353796l0,2.247156l-0.77733,0.768718l1.291468,1.088149l1.412653,-1.088149l-0.736012,-0.749024l0,-2.715611c0.480234,-0.264374 1.635969,-0.481287 -0.083685,-1.140789l0,0m0,0l0,0z" id="svg_2"/>
  <path d="m27.358822,1.050995l-22.833006,0c-1.933792,0 -3.501813,1.744425 -3.501813,3.895178l0,14.493696c0,2.151325 1.568021,3.894243 3.501813,3.894243l8.471349,0l0,2.722509l6.591744,0l0,-2.722509l7.769913,0c1.933941,0 3.501175,-1.742958 3.501175,-3.894243l0,-14.493696c0.000038,-2.150794 -1.567234,-3.895178 -3.501175,-3.895178l0,0m-11.417123,0.763364c0.315776,0 0.571189,0.278107 0.571189,0.621382c0,0.343396 -0.255413,0.621461 -0.571189,0.621461c-0.315102,0 -0.570589,-0.277945 -0.570589,-0.621461c0.000038,-0.343276 0.255452,-0.621382 0.570589,-0.621382l0,0m11.018102,20.70176l-2.553371,0c-0.237803,0 -0.430912,-0.210852 -0.430912,-0.46979c0,-0.259665 0.193264,-0.470522 0.430912,-0.470522l2.553371,0c0.237879,0 0.430956,0.210896 0.430956,0.470522c-0.000038,0.258972 -0.193115,0.46979 -0.430956,0.46979l0,0m1.471764,-3.076332c0,0.689602 -0.481173,1.25091 -1.072704,1.25091l-22.833008,0c-0.591607,0 -1.073344,-0.561346 -1.073344,-1.25091l0,-14.493614c0,-0.690417 0.481737,-1.251715 1.073344,-1.251715l22.833008,0c0.591532,0 1.072704,0.561298 1.072704,1.251715l0,14.493614l0,0m-6.201477,7.450174l-12.576214,0c-0.646354,0 -1.171022,0.570948 -1.171022,1.274637c0,0.703772 0.524481,1.274427 1.171022,1.274427l12.576214,0c0.647177,0 1.170986,-0.570656 1.170986,-1.274427c0,-0.70369 -0.523809,-1.274637 -1.170986,-1.274637l0,0m0.595348,-21.631816l0,0z" id="svg_3"/>
 </g>
</svg>